<svg width="169" height="12" viewBox="0 0 169 12" fill="none" xmlns="http://www.w3.org/2000/svg">
<path d="M40.5699 1.89923C39.9592 1.38126 39.3485 0.949611 38.5632 0.604295C37.8653 0.345308 37.08 0.17265 36.2076 0.17265C35.4223 0.17265 34.6371 0.345308 33.8519 0.604295C33.0667 0.863282 32.4559 1.29493 31.8452 1.89923C31.2345 2.50353 30.7982 3.10784 30.5365 3.79847C30.2747 4.4891 30.1002 5.26606 30.1002 6.04303C30.1002 6.81999 30.2747 7.59695 30.5365 8.28758C30.7982 8.97822 31.3217 9.66885 31.8452 10.1868C32.4559 10.7048 33.0667 11.1364 33.8519 11.4818C34.6371 11.8271 35.4223 11.9134 36.2076 11.9134C36.9928 11.9134 37.778 11.7407 38.5632 11.4818C39.2612 11.2228 39.9592 10.7911 40.5699 10.1868C41.1807 9.66885 41.6169 8.97822 41.8786 8.28758C42.1404 7.59695 42.3149 6.81999 42.3149 6.04303C42.3149 5.26606 42.1404 4.4891 41.8786 3.79847C41.6169 3.10784 41.1807 2.50353 40.5699 1.89923ZM40.1337 7.68328C39.9592 8.20125 39.6102 8.6329 39.2612 9.06454C38.825 9.49619 38.3887 9.75518 37.9525 10.0142C37.429 10.1868 36.9055 10.3595 36.382 10.3595C35.8586 10.3595 35.2478 10.2732 34.8116 10.0142C34.2881 9.84151 33.8519 9.49619 33.5029 9.06454C33.0666 8.6329 32.8049 8.20125 32.6304 7.68328C32.4559 7.1653 32.2814 6.64733 32.2814 6.04303C32.2814 5.43872 32.3687 4.92075 32.6304 4.40277C32.8049 3.8848 33.1539 3.45315 33.5029 3.02151C33.8519 2.58986 34.3754 2.33088 34.8116 2.07189C35.3351 1.89923 35.8586 1.72657 36.382 1.72657C36.9055 1.72657 37.429 1.8129 37.9525 2.07189C38.476 2.24455 38.9122 2.58986 39.2612 3.02151C39.6974 3.45315 39.9592 3.8848 40.1337 4.40277C40.3082 4.92075 40.4827 5.43872 40.4827 6.04303C40.3954 6.64733 40.3082 7.1653 40.1337 7.68328Z" fill="black"/>
<path d="M19.456 6.0433C19.456 9.3238 22.1607 12 25.4761 12C26.9593 12 28.3553 11.482 29.4022 10.5324C29.1405 10.1008 28.617 9.84177 28.0935 9.84177C27.919 9.84177 27.6573 9.84177 27.4828 9.9281C26.9593 10.1871 26.3486 10.2734 25.7378 10.2734C23.3822 10.2734 21.4627 8.37418 21.4627 6.0433C21.4627 3.71241 23.3822 1.81317 25.7378 1.81317C26.3486 1.81317 26.9593 1.8995 27.4828 2.15849C27.6573 2.24482 27.919 2.24482 28.0935 2.24482C28.617 2.24482 29.1405 1.98583 29.4022 1.55418C28.3553 0.604565 26.9593 0.0865905 25.4761 0.0865905C22.1607 0.17292 19.456 2.84912 19.456 6.0433Z" fill="black"/>
<path d="M11.342 0.43189C10.4695 0.43189 9.77151 1.12252 9.68426 1.98581H13.6104V11.6547H13.8721C14.7446 11.6547 15.5298 10.964 15.5298 10.1007V1.98581H17.7983C18.6707 1.98581 19.3687 1.29518 19.3687 0.43189H11.342Z" fill="black"/>
<path d="M8.54975 9.49635C8.54975 9.41002 8.54975 9.41002 8.54975 9.49635H4.62362C4.62362 8.63306 5.3216 7.94242 6.28132 7.94242H7.76452" fill="black"/>
<path d="M8.63749 10.7911C8.89923 11.3091 9.42271 11.7408 10.1207 11.7408H10.9932L5.49658 0L0 11.7408H0.872474C1.48321 11.7408 2.09394 11.3954 2.35568 10.7911L5.58383 3.79848L8.63749 10.7911Z" fill="black"/>
<path d="M49.818 6.73366L44.5832 0.17265L44.0597 11.7407H44.3214C45.1939 11.7407 45.9791 11.0501 45.9791 10.1868L46.2409 5.00708L49.818 9.49619H49.9053L53.4824 4.92075L53.7441 10.1868C53.7441 11.0501 54.4421 11.7407 55.4018 11.7407H55.6636L54.9656 0.17265L49.818 6.73366Z" fill="black"/>
<path d="M65.0011 0.604067H68.9273C71.3702 0.604067 73.0279 1.81267 73.0279 3.9709C73.0279 6.21546 71.0212 7.42406 68.7528 7.42406H65.7864V11.4815H65.0011V0.604067ZM68.84 6.6471C70.8467 6.6471 72.2427 5.61115 72.2427 3.9709C72.2427 2.24432 70.934 1.38103 68.9273 1.38103H65.7864V6.73343H68.84V6.6471Z" fill="black"/>
<path d="M74.9474 0.604067H79.5715C82.0144 0.604067 83.4976 1.899 83.4976 3.71191C83.4976 5.52482 82.1017 6.56077 80.2695 6.81976L83.9339 11.4815H82.8869L79.397 6.90609H75.8199V11.3952H75.0346V0.604067H74.9474ZM79.4843 6.21546C81.3165 6.21546 82.7124 5.35216 82.7124 3.71191C82.7124 2.24432 81.5782 1.2947 79.5715 1.2947H75.8199V6.21546H79.4843Z" fill="black"/>
<path d="M85.2426 6.04308C85.2426 3.02156 87.4238 0.345357 90.8265 0.345357C94.1419 0.345357 96.3231 2.93523 96.3231 5.95675C96.3231 8.89193 94.1419 11.5681 90.7392 11.5681C87.3366 11.5681 85.2426 8.97826 85.2426 6.04308ZM95.4506 6.04308C95.4506 3.28055 93.4439 1.12232 90.7392 1.12232C88.0346 1.12232 86.1151 3.28055 86.1151 5.95675C86.1151 8.63295 88.1218 10.8775 90.8265 10.8775C93.5311 10.8775 95.4506 8.71928 95.4506 6.04308Z" fill="black"/>
<path d="M98.5916 0.604067H102.256C105.746 0.604067 108.102 2.93495 108.102 6.0428C108.102 9.06431 105.746 11.4815 102.256 11.4815H98.5916V0.604067ZM102.256 10.7046C105.31 10.7046 107.229 8.63267 107.229 6.0428C107.229 3.45293 105.31 1.38103 102.256 1.38103H99.4641V10.7909H102.256V10.7046Z" fill="black"/>
<path d="M110.283 6.90609V0.604067H111.068V6.90609C111.068 9.49596 112.464 10.9636 114.82 10.9636C117.088 10.9636 118.484 9.66862 118.484 6.99242V0.604067H119.269V6.90609C119.269 10.0139 117.437 11.6542 114.732 11.6542C112.115 11.6542 110.283 10.0139 110.283 6.90609Z" fill="black"/>
<path d="M121.363 6.04308C121.363 2.93523 123.719 0.345357 126.859 0.345357C128.866 0.345357 130 1.03599 131.135 2.07194L130.524 2.67624C129.564 1.72662 128.43 1.03599 126.859 1.03599C124.242 1.03599 122.235 3.19422 122.235 5.87042C122.235 8.63295 124.242 10.7912 126.859 10.7912C128.43 10.7912 129.564 10.1869 130.611 9.06459L131.135 9.58257C130 10.7048 128.692 11.4818 126.772 11.4818C123.719 11.6545 121.363 9.15092 121.363 6.04308Z" fill="black"/>
<path d="M136.02 1.2947H132.182V0.604067H140.645V1.38103H136.806V11.4815H136.02V1.2947Z" fill="black"/>
<path d="M142.826 0.604067H143.611V11.4815H142.826V0.604067Z" fill="black"/>
<path d="M146.49 6.04308C146.49 3.02156 148.671 0.345357 152.074 0.345357C155.389 0.345357 157.57 2.93523 157.57 5.95675C157.57 8.89193 155.389 11.5681 151.987 11.5681C148.584 11.5681 146.49 8.97826 146.49 6.04308ZM156.698 6.04308C156.698 3.28055 154.691 1.12232 151.987 1.12232C149.282 1.12232 147.362 3.28055 147.362 5.95675C147.362 8.63295 149.369 10.8775 152.074 10.8775C154.779 10.8775 156.698 8.71928 156.698 6.04308Z" fill="black"/>
<path d="M159.839 0.604067H160.624L168.215 10.1003V0.604067H169V11.4815H168.389L160.624 1.81267V11.4815H159.839V0.604067Z" fill="black"/>
</svg>
