<?xml version="1.0" encoding="UTF-8"?><svg id="Layer_2" xmlns="http://www.w3.org/2000/svg" viewBox="0 0 68 68"><defs><style>.cls-1{fill:#fff;}</style></defs><g id="Layer_1-2"><g><path d="M34.64,6c-4.76,0-9.43,1.25-13.56,3.61-4.13,2.36-7.57,5.76-9.98,9.86-2.41,4.1-3.72,8.76-3.78,13.52-.06,4.76,1.12,9.45,3.42,13.61l-4.68,14.07c-.06,.18-.07,.37-.03,.55,.04,.18,.13,.35,.27,.48,.13,.13,.3,.23,.48,.27,.18,.04,.37,.03,.55-.03l14.06-4.68c3.65,2.03,7.72,3.19,11.89,3.4,4.17,.21,8.33-.54,12.17-2.18,3.84-1.65,7.24-4.15,9.96-7.32,2.72-3.17,4.68-6.92,5.72-10.96,1.04-4.04,1.15-8.27,.31-12.36-.84-4.09-2.61-7.93-5.17-11.24-2.56-3.3-5.84-5.97-9.59-7.81-3.75-1.84-7.87-2.79-12.04-2.79Z"/><path class="cls-1" d="M34.66,6c4.17,0,8.28,.95,12.02,2.79,3.75,1.84,7.03,4.51,9.59,7.81,2.56,3.3,4.33,7.14,5.17,11.24,.84,4.09,.74,8.32-.31,12.36-1.04,4.04-3,7.79-5.72,10.96-2.72,3.17-6.13,5.67-9.96,7.32-3.41,1.47-7.08,2.22-10.79,2.22-.46,0-.92-.01-1.38-.03-4.17-.21-8.24-1.38-11.89-3.4l-14.06,4.68c-.11,.04-.22,.06-.33,.06-.07,0-.15,0-.22-.03-.18-.04-.35-.13-.48-.27-.13-.13-.23-.3-.27-.48-.04-.18-.03-.37,.03-.55l4.68-14.07c-2.3-4.16-3.48-8.85-3.42-13.61,.06-4.76,1.37-9.42,3.78-13.52,2.41-4.1,5.86-7.5,9.98-9.86,4.13-2.36,8.8-3.61,13.56-3.61h.02m0-6h-.02c-5.79,0-11.51,1.52-16.54,4.4-5.03,2.88-9.24,7.03-12.18,12.03C2.99,21.42,1.39,27.12,1.32,32.91c-.06,4.88,.95,9.72,2.94,14.15L.37,58.76c-.42,1.23-.48,2.54-.19,3.81,.29,1.28,.94,2.45,1.87,3.39,.93,.93,2.1,1.58,3.39,1.87,.51,.12,1.04,.18,1.56,.18,.77,0,1.52-.12,2.25-.37l11.69-3.89c3.79,1.71,7.9,2.71,12.04,2.92,.56,.03,1.13,.04,1.69,.04,4.55,0,8.97-.91,13.15-2.71,4.65-2,8.85-5.09,12.15-8.93,3.3-3.84,5.71-8.47,6.97-13.37,1.27-4.9,1.4-10.12,.38-15.08-1.02-4.96-3.2-9.7-6.3-13.7-3.1-4-7.14-7.3-11.69-9.52-4.54-2.22-9.61-3.4-14.66-3.4h0Z"/></g></g></svg>