<?xml version="1.0" encoding="utf-8"?>
<!-- Generator: Adobe Illustrator 27.5.0, SVG Export Plug-In . SVG Version: 6.00 Build 0)  -->
<svg version="1.1" id="Layer_1" xmlns="http://www.w3.org/2000/svg" xmlns:xlink="http://www.w3.org/1999/xlink" x="0px" y="0px"
	 width="71px" height="18px" viewBox="0 0 71 18" enable-background="new 0 0 71 18" xml:space="preserve">
<path fill-rule="evenodd" clip-rule="evenodd" fill="#BFBFBF" d="M0.6,8.8c0,5.3,3.3,8.9,8,8.9s8-3.6,8-8.9c0-5.3-3.3-8.8-8-8.8
	S0.6,3.6,0.6,8.8z M8.6,2.8c1.5,0,2.6,1,2.7,4.6H5.9C6,3.8,7.1,2.8,8.6,2.8z M8.6,15c-1.5,0-2.6-1.1-2.7-4.9h5.4
	C11.2,13.9,10.1,15,8.6,15z"/>
<path fill="#BFBFBF" d="M16.3,14.9v2.6h14.4v-7.2h-2.3v1.1c0,2.8-1,3.6-2.8,3.6H24c-0.6,0-0.9-0.2-0.9-1v-3.9h0.9
	c0.6,0,0.9,0.4,0.9,1.1V13H27V4.9h-2.1v1.4c0,0.7-0.2,1.2-0.8,1.2h-1V3.9c0-0.8,0.3-1,0.9-1h1.8c1.4,0,2.4,1,2.4,3.2v1.1h2.3V0.4
	H16.3v2.6h1.2c0.6,0,0.9,0.2,0.9,1v10c0,0.8-0.3,1-0.9,1L16.3,14.9L16.3,14.9z"/>
<path fill="#BFBFBF" d="M44.7,17.5v-2.6h0.9c0.7,0,1-0.4,1-1.2V4.4l-3.6,13.1h-2.9l-3.6-13v9.1c0,0.8,0.4,1.4,1.1,1.4h0.9v2.6h-6.5
	v-2.6h1c0.6,0,1.1-0.6,1.1-1.4V4.3c0-0.8-0.4-1.4-1.1-1.4h-1V0.4h8l2.8,9.8l2.6-9.8h7.6v2.6h-0.9c-0.6,0-0.9,0.4-0.9,1.2v9.6
	c0,0.8,0.3,1.2,0.9,1.2h0.9v2.6L44.7,17.5z"/>
<path fill-rule="evenodd" clip-rule="evenodd" fill="#BFBFBF" d="M61.9,14.9v2.6h8.6v-2.6H70c-0.7,0-1-0.5-1.3-1.2L64.5,0.4H60
	L55.6,14c-0.2,0.7-0.8,1-1.4,1h-0.4v2.6h6.3v-2.6h-1.1c-0.7,0-1-0.4-0.7-1.2l0.3-1h5l0.3,1.1c0.2,0.6,0,1.1-0.6,1.1L61.9,14.9
	L61.9,14.9z M59.5,10.2l1.8-5.6l1.7,5.6H59.5z"/>
</svg>
