<svg width="139" height="47" viewBox="0 0 139 47" fill="none" xmlns="http://www.w3.org/2000/svg">
<path fill-rule="evenodd" clip-rule="evenodd" d="M13.1299 17.2032C13.1299 26.6964 19.1418 33.2371 27.5397 33.2371C35.9367 33.2371 41.9482 26.6964 41.9487 17.2032C41.9487 7.75096 35.9367 1.33008 27.5397 1.33008C19.1414 1.33008 13.1299 7.75138 13.1299 17.2032ZM27.5397 6.35575C30.2435 6.35575 32.2152 8.07064 32.4062 14.6512H22.6405C22.8315 8.07064 24.8355 6.35575 27.5397 6.35575ZM27.5397 28.2513C24.8036 28.2513 22.7992 26.3378 22.6405 19.4778H32.4062C32.2471 26.3378 30.2749 28.2513 27.5397 28.2513Z" fill="black"/>
<path d="M41.4423 28.1323V32.718H67.2386V19.7958H63.1355V21.7508C63.1355 26.7764 61.2589 28.1323 58.1736 28.1323H55.12C53.975 28.1323 53.5931 27.8126 53.5931 26.3378V19.3969H55.2792C56.2969 19.3969 56.8057 20.1549 56.8057 21.4319V24.7021H60.4954V10.1844H56.8057V12.7368C56.8057 14.0533 56.392 14.851 55.3743 14.851H53.5931V8.31028C53.5931 6.87402 54.1338 6.59539 55.2792 6.59539H58.5869C61.1638 6.59539 62.8495 8.4297 62.8495 12.418V14.4521H66.9525V2.00881H41.4423V6.59539H43.5095C44.6545 6.59539 45.1642 6.87402 45.1642 8.31028V26.3378C45.1642 27.8126 44.6545 28.1323 43.5095 28.1323H41.4423Z" fill="black"/>
<path d="M92.3038 32.7184V28.1323H93.9258C95.1035 28.1323 95.6437 27.4141 95.6437 25.9783V9.26724L89.1866 32.718H84.0336L77.481 9.30746V25.5798C77.481 27.0555 78.2767 28.1323 79.4213 28.1323H81.0756V32.7184H69.4333V28.1323H71.1826C72.328 28.1323 73.1548 27.0551 73.1548 25.5798V9.06739C73.1548 7.63237 72.3599 6.59539 71.2144 6.59539H69.4333V2.00881H83.7149L88.6773 19.6772L93.2896 2.00881H106.905V6.59581H105.313C104.168 6.59581 103.628 7.27289 103.628 8.70957V25.9787C103.628 27.4146 104.169 28.1327 105.313 28.1327H106.905V32.7189L92.3038 32.7184Z" fill="black"/>
<path fill-rule="evenodd" clip-rule="evenodd" d="M123.221 28.1323V32.7185H138.648V28.1323H137.758C136.58 28.1323 135.881 27.2537 135.468 25.8979L127.993 2.00842H119.754L112.025 26.4162C111.611 27.7338 110.53 28.1323 109.543 28.1323H108.876V32.7185H120.232V28.1323H118.196C116.954 28.1323 116.478 27.4934 116.923 25.9783L117.465 24.1432H126.371L126.943 26.1773C127.261 27.2537 126.88 28.1323 125.831 28.1323H123.221ZM118.864 19.7166L122.013 9.58652L125.002 19.7166H118.864Z" fill="black"/>
<path d="M9.7555 0.428711H0.302734V34.1386H9.7555V0.428711Z" fill="black"/>
<path fill-rule="evenodd" clip-rule="evenodd" d="M5.09986 8.52889C6.49619 8.52889 7.45891 7.59391 7.45891 6.03989C7.45891 4.48381 6.49619 3.54883 5.09986 3.54883C3.70848 3.54883 2.76229 4.48381 2.76229 6.03989C2.76229 7.59391 3.70848 8.52889 5.09986 8.52889ZM5.09986 6.7742C3.81967 6.7742 3.50221 6.59839 3.50221 6.03989C3.50221 5.48098 3.81967 5.30891 5.09986 5.30891C6.385 5.30891 6.72561 5.48057 6.72561 6.03989C6.72561 6.59839 6.385 6.7742 5.09986 6.7742Z" fill="white"/>
<path d="M4.82825 9.85526H4.26483C3.78988 9.85526 3.50797 10.0539 3.50797 10.5315V10.7438H6.33123C6.54742 10.7438 6.70657 10.585 6.70657 10.3723V9.86687H7.382V13.2104H6.70657V12.6979C6.70657 12.4873 6.54742 12.3335 6.33123 12.3335H3.50797V12.5454C3.50797 13.0218 3.78988 13.222 4.26483 13.222H4.82825V13.9878H2.8623V9.08986H4.82825V9.85526Z" fill="white"/>
<path d="M5.02226 16.2604C6.13214 16.2604 6.41901 16.5133 6.53103 16.908H7.38173V14.5579H6.66537L6.51863 15.1413C6.13214 14.7536 5.66752 14.5355 5.02226 14.5355C3.678 14.5355 2.73926 15.5593 2.73926 17.1153C2.73926 18.6669 3.678 19.6931 5.02226 19.6931C5.66752 19.6931 6.13214 19.4754 6.51863 19.0865L6.66537 19.6686H7.38173V17.2957H6.52524C6.4186 17.69 6.08956 17.9031 5.02226 17.9031C3.78258 17.9031 3.4552 17.6369 3.4552 17.0789C3.4552 16.5199 3.78258 16.2604 5.02226 16.2604Z" fill="white"/>
<path fill-rule="evenodd" clip-rule="evenodd" d="M5.58015 21.9014V23.0076H6.39034C6.60198 23.0076 6.70698 22.9135 6.70698 22.7008V22.1646H7.382V25.2735H6.70698V24.892C6.70698 24.6798 6.60198 24.586 6.39034 24.586H3.98912C3.68365 24.586 3.5369 24.6669 3.5369 24.8858V25.2739H2.8623V22.2961C2.8623 20.9357 3.27276 20.2458 4.18258 20.2458C5.08164 20.2449 5.58015 20.764 5.58015 21.9014ZM3.50301 22.5249V22.6361C3.50301 22.85 3.61461 23.0076 3.82502 23.0076H4.88074V22.5954C4.88074 22.1713 4.64058 21.93 4.17141 21.93C3.78988 21.9295 3.50301 22.153 3.50301 22.5249Z" fill="white"/>
<path d="M3.5371 28.3003V29.042C3.5371 29.2543 3.6363 29.348 3.84753 29.348H6.38888C6.60052 29.348 6.70676 29.2539 6.70676 29.042V28.7879H7.38219V31.6156H6.70676V31.2317C6.70676 31.0202 6.60052 30.9257 6.38888 30.9257H3.84753C3.63589 30.9257 3.5371 31.0206 3.5371 31.2317V31.6745H2.86125V25.674H3.5371V26.1148C3.5371 26.3279 3.6363 26.4171 3.84753 26.4171H6.38888C6.60052 26.4171 6.70676 26.3279 6.70676 26.1148V25.7333H7.38219V28.5532H6.70676V28.3007C6.70676 28.0876 6.60052 27.9939 6.38888 27.9939H3.84753C3.6363 27.9935 3.5371 28.0876 3.5371 28.3003Z" fill="white"/>
<rect x="0.302734" y="38.4238" width="138.322" height="8.57143" fill="#F47B23"/>
</svg>
