<svg width="94" height="93" fill="none" xmlns="http://www.w3.org/2000/svg"><path fill-rule="evenodd" clip-rule="evenodd" d="M46.355.118c-1.379.279-2.677 1.275-3.374 2.59-.355.67-.424 1.002-.424 2.06-.001 1.509.35 2.404 1.32 3.362l.64.632.336 10.308c.184 5.669.335 10.817.334 11.44l-.002 1.134-.599-.085c-5.964-.855-9.75-1.688-11.388-2.506-1.498-.748-2.163-2.036-1.41-2.73.795-.73 2.495-.517 4.635.584 3.48 1.789 7.339 1.306 6.934-.868-.246-1.325-2.648-3.023-5.132-3.628-1.535-.374-4.407-.37-5.97.007-6.775 1.636-7.265 6.733-.958 9.943 2.228 1.134 4.83 1.814 10.616 2.775 1.58.263 2.991.514 3.136.559.339.105.407.671.442 3.686.015 1.338.056 2.477.09 2.532.035.055.078 1.303.097 2.774l.034 2.673-.702.376c-3.441 1.84-5.348 4.046-5.7 6.594-.315 2.274.317 4.056 2.03 5.728 1 .976 2.946 2.136 4.425 2.64l.5.17.106 4.235c.058 2.329.117 4.376.132 4.55.014.173-.214.634-.507 1.025-.292.39-.72 1.1-.95 1.577-.378.78-.42 1.05-.42 2.682 0 1.71.03 1.875.506 2.868.277.58.79 1.36 1.14 1.735l.634.681.118 4.855c.065 2.67.181 4.892.257 4.938.077.047.14-.682.14-1.62 0-.938.047-3.028.104-4.644l.104-2.94.813.373c1.13.517 2.375.745 3.39.62 1.14-.14 1.093-.398-.073-.398-1.095 0-2.394-.352-3.233-.875-.962-.6-.896.042-.686-6.642l.1-3.18 1.036-.751c2.482-1.8 3.468-3.28 3.458-5.189-.01-1.852-1.001-3.36-3.132-4.76l-1.113-.731.091-1.201c.05-.66.138-3.1.194-5.42.063-2.604.163-4.22.26-4.22.087 0 .59.227 1.116.505 2.8 1.475 4.084 3.956 3.154 6.094-.462 1.06-1.876 2.345-3.36 3.053-.605.287-1.1.567-1.103.622-.002.054.215.188.482.297.267.11.77.403 1.118.652l.633.453.95-.473c2.227-1.111 4.04-3.498 4.256-5.606.241-2.34-.998-4.975-3.09-6.572l-.837-.639-1.638.65c-.901.358-1.692.65-1.758.65-.066-.001-.12-.134-.12-.296 0-.206.227-.377.759-.573.417-.154 1.483-.615 2.37-1.025 4.383-2.025 6.29-4.423 6.29-7.91 0-3.357-2.514-5.875-7.478-7.491l-1.302-.424-.003-.724c-.001-.399.15-5.68.337-11.736l.338-11.012.764-.707c2.044-1.889 2.032-5.093-.024-6.93C49.438.269 47.828-.18 46.355.119zM24.672 2.79c-2.328.413-2.886.577-9.838 2.901C7.038 8.297 2.434 9.438.89 9.146c-.395-.074-.42-.052-.269.229.565 1.042 2.592 2.221 4.561 2.653 3.395.744 7.534-.347 15.26-4.023 4.79-2.278 5.706-2.597 7.423-2.582 2.485.022 4.049.925 7.618 4.397 1.879 1.827 2.864 2.663 3.556 3.02 1.141.587 2.072.767 2.721.524.47-.175 1.35-.902 1.35-1.115 0-.06-.198-.159-.44-.218-.655-.16-1.85-.962-2.547-1.71-.339-.364-.997-1.285-1.462-2.047-2.844-4.656-7.768-6.586-13.989-5.484zm39.75-.207c-3.848.614-6.67 2.557-8.788 6.05-1.048 1.731-2.577 3.104-3.784 3.398-.569.139-.554.256.108.83.727.631 1.329.742 2.383.44 1.256-.361 2.52-1.271 4.413-3.176 3.279-3.3 4.38-4.057 6.666-4.584 2.018-.465 3.216-.124 8.659 2.462 7.794 3.702 11.85 4.772 15.26 4.025 1.488-.326 2.857-.972 3.75-1.769 1.093-.975 1.085-1.095-.07-1.113-2.375-.035-5.443-.834-13.513-3.517-7.973-2.65-9.318-2.984-12.371-3.063-1.23-.033-2.45-.024-2.714.018zM26.826 7.52c-.22.067-1.261.549-2.315 1.071-5 2.478-10.111 4.307-14.027 5.017-.942.171-2.024.24-3.236.205-2.088-.06-2.092.03-.035.814 4.559 1.737 10.014.977 14.327-1.998.561-.386 1.694-1.284 2.518-1.994 1.727-1.49 3.18-2.413 4.203-2.668l.718-.179-.478-.2c-.535-.226-1.082-.248-1.675-.068zm39.35-.044c-.612.16-.575.327.11.498.995.249 2.462 1.184 4.175 2.66.824.711 1.956 1.609 2.517 1.995 4.314 2.975 9.769 3.735 14.328 1.998 2.067-.788 2.056-.874-.095-.815-1.528.042-2.252-.023-3.874-.348-3.617-.725-7.626-2.17-12.611-4.544-2.823-1.345-3.776-1.647-4.55-1.444zM29.661 9.65c-.24.125-.852.538-1.357.92-3.423 2.584-8.013 5.043-10.859 5.816-.678.184-1.715.343-2.304.353l-1.071.018.672.348c2.977 1.541 6.744 1.37 9.781-.446 1.29-.77 2.468-1.861 3.899-3.606 1.463-1.786 2.603-2.828 3.23-2.951.551-.11.563-.26.037-.497-.555-.25-1.497-.228-2.028.045zm33.124-.044c-.477.24-.453.39.08.496.639.127 1.594 1 3.233 2.957 3.028 3.616 5.669 5.059 9.258 5.059 1.704 0 2.91-.267 4.26-.942l.904-.451-1.105-.001c-2.983-.004-7.92-2.309-13.214-6.169-1.248-.91-1.51-1.036-2.235-1.08-.452-.027-.984.032-1.181.131zM33.06 12.43c-.39.175-2.115 1.36-3.831 2.633-3.523 2.614-4.676 3.349-5.266 3.356-.365.004-.377.022-.117.171.438.253 2.164.213 3.155-.072 1.627-.467 3.364-1.833 5.059-3.976.736-.93 1.494-1.59 2.225-1.934.288-.136.524-.305.524-.375 0-.24-1.034-.124-1.749.197zm26.652-.207c0 .065.33.292.735.503.404.212 1.104.813 1.556 1.335 1.856 2.146 3.353 3.498 4.473 4.04.93.452 1.31.543 2.495.6.842.039 1.517-.003 1.697-.106.27-.156.26-.172-.11-.176-.591-.007-1.753-.747-5.287-3.365-1.724-1.277-3.446-2.461-3.828-2.632-.686-.308-1.731-.428-1.731-.2zM36.246 13.89c-.22.114-1.585 1.092-3.034 2.172-1.45 1.08-3.21 2.318-3.912 2.75l-1.276.784.76.048c1.001.063 2.512-.33 3.617-.944.527-.292 1.672-1.266 2.8-2.38 1.05-1.038 2.078-1.996 2.285-2.13.285-.184.325-.274.166-.374-.311-.195-.955-.16-1.406.074zm20.623-.082c-.16.107-.118.199.182.393.216.14 1.134 1.007 2.04 1.927 1.873 1.902 3.125 2.785 4.589 3.235 1.068.328 2.736.422 2.736.154 0-.087-.077-.158-.171-.158-.303 0-2.387-1.4-5.185-3.481-2.1-1.563-2.867-2.047-3.352-2.117-.347-.05-.724-.029-.84.047zm-17.933 1.137c-.32.167-1.147.917-1.836 1.665-1.38 1.499-2.784 2.623-3.888 3.114l-.718.32.48.136c.263.075.765.097 1.117.048 1.967-.274 3.358-1.267 4.327-3.089.528-.992 1.262-1.81 2.07-2.306.549-.336-.894-.232-1.552.112zm15.096-.112c.808.496 1.543 1.314 2.07 2.306.97 1.822 2.361 2.815 4.328 3.089.351.049.854.027 1.118-.048l.479-.137-.719-.319c-1.103-.49-2.507-1.615-3.888-3.115-1.365-1.483-2.155-1.987-3.09-1.973-.534.008-.569.031-.298.197zm3.614 7.438c-2.082.391-3.584 1.104-4.817 2.287-1.288 1.234-1.34 2.38-.141 3.075.454.263.828.322 1.995.317 1.65-.006 2.073-.122 4.44-1.211 1.48-.682 1.867-.795 2.736-.803 1.728-.017 2.32.775 1.531 2.052-.39.632-2.411 1.627-4.237 2.086-1.295.326-5.651 1.083-8.337 1.448-.81.11-1.444.23-1.408.265.035.036.784.303 1.663.594 1.607.533 3.066 1.196 4.229 1.921l.629.392 1.372-.262c5.782-1.106 9.406-3.034 10.646-5.665.463-.983.508-2.242.11-3.074-.66-1.377-2.68-2.681-5.029-3.248-1.518-.366-3.941-.445-5.382-.174zM40.962 25.11c.478.472.49.71.061 1.248-.398.5-.98.54-1.425.1-.556-.55-.325-1.331.479-1.624.406-.147.48-.124.885.276zm14.356-.203c.734.33.758 1.307.043 1.703-.394.218-.482.218-.877 0-.363-.201-.44-.35-.44-.864 0-.503.076-.657.4-.82.485-.242.384-.24.874-.019zM37.48 35.981c-2.53 2.502-2.46 6.534.165 9.42.723.794 2.308 1.914 3.553 2.509l.72.344 1.81-.941 1.81-.942-1.807-.925c-2.212-1.133-3.66-2.38-4.04-3.484-.796-2.31.346-3.643 4.372-5.098l1.192-.43-.952-.198a132.47 132.47 0 00-3.488-.622l-2.535-.423-.8.79zm13.395 1.407c2.29.964 3.25 1.954 3.25 3.355.001 1.755-1.207 3.137-3.981 4.553l-1.457.743.09-2.573c.05-1.416.131-3.517.182-4.67.105-2.408-.1-2.257 1.916-1.408zm-4.987 14.507c.049.63.135 2.802.19 4.83l.1 3.686-1.01-.531c-2.925-1.537-3.966-3.849-2.761-6.131.206-.39.574-.935.819-1.21.434-.49 2.215-1.788 2.452-1.788.066 0 .16.515.21 1.144zM43.17 63.303c-1.012 1.06-1.384 1.881-1.463 3.227-.062 1.063-.02 1.338.328 2.088.453.976 1.267 1.93 2.417 2.831l.783.613.53-.508.532-.51-1.087-1.057c-1.29-1.255-1.693-1.986-1.697-3.08-.004-1.005.563-1.878 1.778-2.738l.84-.595-1.075-.417c-.591-.23-1.137-.417-1.212-.417-.075 0-.379.253-.674.563zm5.984 1.137c.801.587 1.46 1.705 1.46 2.48 0 .893-.65 2.107-1.596 2.982-.432.399-.842.725-.912.726-.1 0-.06-2.81.094-6.36.02-.484.068-.476.954.172zm-.746 8.76l-.356.374.552.906c1.165 1.911 1.164 3.95-.002 5.864-.545.894-.55.916-.252 1.21.298.294.316.282.963-.676 1.065-1.576 1.474-3.381 1.15-5.078-.214-1.118-1.077-2.86-1.453-2.93-.135-.024-.406.124-.602.33zm-1.663 6.261l-.042 1.499-.424-.868c-.85-1.738-.89-3.53-.115-5.163l.357-.752.133 1.892c.074 1.042.115 2.568.091 3.392zm-1.166 3.216c-.534.37-1.997.728-2.976.728-1.181 0-1.207.258-.04.402 1.038.128 2.283-.085 3.328-.57.594-.277.703-.386.556-.561-.231-.276-.468-.276-.868.001z" fill="#fff"/></svg>